<svg xmlns="http://www.w3.org/2000/svg" xmlns:xlink="http://www.w3.org/1999/xlink" width="556.425" height="364.906" viewBox="0 0 556.425 364.906">
  <defs>
    <clipPath id="clip-path">
      <path id="Path_15749" data-name="Path 15749" d="M-164.96,298.3c36.187-41.558,107.648,12.206,211.193-11.324,89.682-20.389,94.841-74.547,166.5-71.862,52.349,1.952,109.393,32.179,140.743,84.839,34.574,58.062,22.006,117.174,18.478,131.518-15.75,64.338-62.5,98.277-78.986,109.869C225.019,589.065,148.776,580.7,112.2,576.707c-137.4-15.047-284.49-113.14-291.04-219.786C-179.711,342.959-181.295,317.062-164.96,298.3Z" transform="translate(1128.557 -64.014)" fill="#e6f3ff" opacity="0.13"/>
    </clipPath>
  </defs>
  <g id="Mask_Group_33" data-name="Mask Group 33" transform="translate(-949.221 -151)" opacity="0.08" clip-path="url(#clip-path)">
    <path id="Path_15748" data-name="Path 15748" d="M0,0H1366V120H0Z" transform="translate(0 164)" fill="#e6f3ff"/>
  </g>
</svg>
