<svg id="linkedin" xmlns="http://www.w3.org/2000/svg" width="24.099" height="23.034" viewBox="0 0 24.099 23.034">
  <path id="Path_13875" data-name="Path 13875" d="M2.922-.668A2.693,2.693,0,1,0,2.855,4.7h.034a2.694,2.694,0,1,0,.034-5.37Zm0,0" transform="translate(0 0.668)" fill="#b9b9b9"/>
  <path id="Path_13876" data-name="Path 13876" d="M8.109,198.313h5.166v15.542H8.109Zm0,0" transform="translate(-7.804 -190.821)" fill="#b9b9b9"/>
  <path id="Path_13877" data-name="Path 13877" d="M231.037,188.625c-2.787,0-4.656,2.619-4.656,2.619V188.99h-5.166v15.542h5.166v-8.679a3.539,3.539,0,0,1,.17-1.261,2.828,2.828,0,0,1,2.65-1.889c1.869,0,2.617,1.425,2.617,3.515v8.314h5.166V195.62c0-4.774-2.549-7-5.947-7Zm0,0" transform="translate(-212.885 -181.497)" fill="#b9b9b9"/>
</svg>
