<svg xmlns="http://www.w3.org/2000/svg" xmlns:xlink="http://www.w3.org/1999/xlink" width="143" height="51" viewBox="0 0 143 51">
  <defs>
    <linearGradient id="linear-gradient" x1="-0.718" y1="1.748" x2="0.954" y2="0.036" gradientUnits="objectBoundingBox">
      <stop offset="0" stop-color="#43dcc7"/>
      <stop offset="0.5" stop-color="#85ffe0"/>
      <stop offset="1" stop-color="#fff"/>
    </linearGradient>
    <linearGradient id="linear-gradient-2" x1="0.059" y1="0.888" x2="2.099" y2="-1.709" gradientUnits="objectBoundingBox">
      <stop offset="0" stop-color="#00b8ae"/>
      <stop offset="0.5" stop-color="#85ffe0"/>
      <stop offset="1" stop-color="#c2fff0"/>
    </linearGradient>
    <linearGradient id="linear-gradient-3" x1="0.134" y1="0.828" x2="1.396" y2="-0.327" gradientUnits="objectBoundingBox">
      <stop offset="0" stop-color="#43dcc7"/>
      <stop offset="0.5" stop-color="#85ffe0"/>
      <stop offset="0.997" stop-color="#c2fff0"/>
    </linearGradient>
  </defs>
  <g id="Group_152" data-name="Group 152" transform="translate(-1084 -12)">
    <g id="Group_125" data-name="Group 125" transform="translate(8 -22)">
      <g id="Group_124" data-name="Group 124" transform="translate(3)">
        <text id="creative." transform="translate(1108 53)" font-size="18" font-family="SegoeUI-Bold, Segoe UI" font-weight="700"><tspan x="0" y="0">درمانیتو</tspan></text>
        <text id="creative.-2" data-name="creative." transform="translate(1073 82)" font-size="12" font-family="SegoeUI-Light, Segoe UI" font-weight="300"><tspan x="0" y="0">همراه شما در درمان</tspan></text>
      </g>
    </g>
    <g id="Group_123" data-name="Group 123" transform="translate(1191.782 16)">
      <path id="Path_690" data-name="Path 690" d="M268.194,57.531c0-.019,0-.038,0-.057-.126-9.4-8.187-17.7-17.608-17.749-.211,0-.421.006-.63.014A19.33,19.33,0,0,0,268.194,57.531Z" transform="translate(-232.976 -39.725)" fill="url(#linear-gradient)"/>
      <path id="Path_691" data-name="Path 691" d="M136.887,330.818c3.287,4.364,9.92,13.445,9.893,13.433a3.081,3.081,0,0,0,5.045,0s1.71-2.363,3.844-5.268C149.474,336.387,143.193,333.589,136.887,330.818Z" transform="translate(-131.694 -300.476)" fill="url(#linear-gradient-2)"/>
      <path id="Path_692" data-name="Path 692" d="M122.282,57.648a19.33,19.33,0,0,1-18.238-17.792c-9.138.41-16.86,8.545-16.978,17.735a16.771,16.771,0,0,0,3.449,10.267s.694.923,1.743,2.327A30.539,30.539,0,0,0,111.04,78.35c3.381-4.615,7.8-10.5,7.794-10.492A16.779,16.779,0,0,0,122.282,57.648Z" transform="translate(-87.065 -39.842)" fill="url(#linear-gradient-3)"/>
      <path id="Path_693" data-name="Path 693" d="M122.282,57.474c-.126-9.4-8.187-17.7-17.608-17.749-9.422.047-17.482,8.353-17.609,17.749A16.771,16.771,0,0,0,90.515,67.74c.018-.054,11.7,15.757,11.637,15.76a3.081,3.081,0,0,0,5.045,0c-.061,0,11.619-15.814,11.638-15.76a16.775,16.775,0,0,0,3.448-10.267Z" transform="translate(-87.065 -39.725)" fill="#1894ff"/>
      <path id="Path_694" data-name="Path 694" d="M158.754,98.734a12.806,12.806,0,0,1-25.612,0,12.806,12.806,0,1,1,25.612,0Z" transform="translate(-128.338 -81.042)" fill="#fff"/>
      <path id="Path_695" data-name="Path 695" d="M173.43,120.832q0-1.81-.013-3.621a.608.608,0,0,0-.6-.607q-1.793-.01-3.587,0a.608.608,0,0,0-.6.607q-.008,1.81-.013,3.621a.608.608,0,0,1-.6.606q-1.806.009-3.612.03a.615.615,0,0,0-.606.607q-.012,1.8-.016,3.6a.6.6,0,0,0,.6.6l3.623-.006a.6.6,0,0,1,.6.6q0,1.81,0,3.621a.606.606,0,0,0,.6.6q1.81,0,3.62,0a.606.606,0,0,0,.6-.6q0-1.81,0-3.621a.6.6,0,0,1,.6-.6l3.623.006a.6.6,0,0,0,.6-.6q0-1.8-.016-3.6a.615.615,0,0,0-.606-.607q-1.806-.02-3.612-.03A.608.608,0,0,1,173.43,120.832Z" transform="translate(-153.414 -106.217)" fill="#00de9a"/>
    </g>
  </g>
</svg>
