<svg xmlns="http://www.w3.org/2000/svg" width="56.174" height="70.21" viewBox="0 0 56.174 70.21">
  <g id="doctor_3_" data-name="doctor (3)" transform="translate(-45.98)">
    <path id="Path_9819" data-name="Path 9819" d="M187.168,0H176.92V6.105h4.142V18.316h6.105Z" transform="translate(-110.954)" fill="#00de9a"/>
    <path id="Path_9820" data-name="Path 9820" d="M62.085,6.105h4.142V0H55.98V18.316h6.105Z" transform="translate(-8.474)" fill="#00de9a"/>
    <path id="Path_9821" data-name="Path 9821" d="M161.158,128.785v24.488a12.516,12.516,0,0,1-25.032,0v-6.8a15.907,15.907,0,0,0,12.827-15.584V120H139.8v10.887a6.729,6.729,0,0,1-6.722,6.722v9.158a15.894,15.894,0,0,1-3.052-.3v6.8a18.621,18.621,0,0,0,37.242,0V128.785a9.135,9.135,0,0,1-6.105,0Z" transform="translate(-71.214 -101.684)" fill="#2361b5"/>
    <path id="Path_9822" data-name="Path 9822" d="M303.179,73.211a3.053,3.053,0,0,1,0-6.105V61a9.158,9.158,0,0,0,0,18.316Z" transform="translate(-210.182 -51.689)" fill="#1894ff"/>
    <path id="Path_9823" data-name="Path 9823" d="M363.178,70.158A9.168,9.168,0,0,0,354.02,61v6.105a3.053,3.053,0,1,1,0,6.105v6.105a9.163,9.163,0,0,0,9.158-9.158Z" transform="translate(-261.023 -51.689)" fill="#2361b5"/>
    <path id="Path_9824" data-name="Path 9824" d="M334.021,104.053A3.053,3.053,0,1,0,337.073,101,3.056,3.056,0,0,0,334.021,104.053Z" transform="translate(-244.077 -85.584)" fill="#fff"/>
    <path id="Path_9825" data-name="Path 9825" d="M61.86,137.609a6.729,6.729,0,0,1-6.722-6.722V120H45.98v10.887a15.877,15.877,0,0,0,15.88,15.88Z" transform="translate(0 -101.684)" fill="#1894ff"/>
  </g>
</svg>
