<svg xmlns="http://www.w3.org/2000/svg" width="64.17" height="62.905" viewBox="0 0 64.17 62.905">
  <g id="Group_4194" data-name="Group 4194" transform="translate(-162.365 -733.524)">
    <g id="wish-list" transform="translate(162.365 733.524)">
      <g id="Group_4150" data-name="Group 4150" transform="translate(0 10.625)">
        <g id="Group_4149" data-name="Group 4149">
          <path id="Path_9744" data-name="Path 9744" d="M91.253,158.216h52.814v41.507H91.253Z" transform="translate(-91.253 -158.216)" fill="#1894ff"/>
        </g>
      </g>
      <g id="Group_4152" data-name="Group 4152" transform="translate(26.426 10.625)">
        <g id="Group_4151" data-name="Group 4151">
          <path id="Path_9745" data-name="Path 9745" d="M256.121,158.216h26.388v41.507H256.121Z" transform="translate(-256.121 -158.216)" fill="#2361b5"/>
        </g>
      </g>
      <g id="Group_4154" data-name="Group 4154" transform="translate(0 4.232)">
        <g id="Group_4153" data-name="Group 4153">
          <path id="Path_9746" data-name="Path 9746" d="M91.253,118.333h26.466v9.541H91.253Z" transform="translate(-91.253 -118.333)" fill="#1894ff"/>
        </g>
      </g>
      <g id="Group_4156" data-name="Group 4156" transform="translate(26.426 4.232)">
        <g id="Group_4155" data-name="Group 4155">
          <path id="Path_9747" data-name="Path 9747" d="M256.121,118.333h26.388v9.541H256.121Z" transform="translate(-256.121 -118.333)" fill="#2361b5"/>
        </g>
      </g>
      <g id="Group_4185" data-name="Group 4185" transform="translate(5.965 17.893)">
        <g id="Group_4163" data-name="Group 4163">
          <g id="Group_4158" data-name="Group 4158">
            <g id="Group_4157" data-name="Group 4157">
              <path id="Path_9748" data-name="Path 9748" d="M128.468,203.556h7.279v7.279h-7.279Z" transform="translate(-128.468 -203.556)" fill="#fff"/>
            </g>
          </g>
          <g id="Group_4160" data-name="Group 4160" transform="translate(0 21.538)">
            <g id="Group_4159" data-name="Group 4159">
              <path id="Path_9749" data-name="Path 9749" d="M128.468,337.925h7.279V345.2h-7.279Z" transform="translate(-128.468 -337.925)" fill="#fff"/>
            </g>
          </g>
          <g id="Group_4162" data-name="Group 4162" transform="translate(0 10.769)">
            <g id="Group_4161" data-name="Group 4161">
              <path id="Path_9750" data-name="Path 9750" d="M128.468,270.741h7.279v7.279h-7.279Z" transform="translate(-128.468 -270.741)" fill="#fff"/>
            </g>
          </g>
        </g>
        <g id="Group_4170" data-name="Group 4170" transform="translate(11.202)">
          <g id="Group_4165" data-name="Group 4165">
            <g id="Group_4164" data-name="Group 4164">
              <path id="Path_9751" data-name="Path 9751" d="M198.352,203.556h7.279v7.279h-7.279Z" transform="translate(-198.352 -203.556)" fill="#fff"/>
            </g>
          </g>
          <g id="Group_4167" data-name="Group 4167" transform="translate(0 21.538)">
            <g id="Group_4166" data-name="Group 4166">
              <path id="Path_9752" data-name="Path 9752" d="M198.352,337.925h7.279V345.2h-7.279Z" transform="translate(-198.352 -337.925)" fill="#fff"/>
            </g>
          </g>
          <g id="Group_4169" data-name="Group 4169" transform="translate(0 10.769)">
            <g id="Group_4168" data-name="Group 4168">
              <path id="Path_9753" data-name="Path 9753" d="M198.352,270.741h7.279v7.279h-7.279Z" transform="translate(-198.352 -270.741)" fill="#fff"/>
            </g>
          </g>
        </g>
        <g id="Group_4177" data-name="Group 4177" transform="translate(22.403)">
          <g id="Group_4172" data-name="Group 4172">
            <g id="Group_4171" data-name="Group 4171">
              <path id="Path_9754" data-name="Path 9754" d="M268.236,203.556h7.279v7.279h-7.279Z" transform="translate(-268.236 -203.556)" fill="#fff"/>
            </g>
          </g>
          <g id="Group_4174" data-name="Group 4174" transform="translate(0 21.538)">
            <g id="Group_4173" data-name="Group 4173">
              <path id="Path_9755" data-name="Path 9755" d="M268.236,337.925h7.279V345.2h-7.279Z" transform="translate(-268.236 -337.925)" fill="#fff"/>
            </g>
          </g>
          <g id="Group_4176" data-name="Group 4176" transform="translate(0 10.769)">
            <g id="Group_4175" data-name="Group 4175">
              <path id="Path_9756" data-name="Path 9756" d="M268.236,270.741h7.279v7.279h-7.279Z" transform="translate(-268.236 -270.741)" fill="#fff"/>
            </g>
          </g>
        </g>
        <g id="Group_4184" data-name="Group 4184" transform="translate(33.605)">
          <g id="Group_4179" data-name="Group 4179">
            <g id="Group_4178" data-name="Group 4178">
              <path id="Path_9757" data-name="Path 9757" d="M338.12,203.556H345.4v7.279H338.12Z" transform="translate(-338.12 -203.556)" fill="#fff"/>
            </g>
          </g>
          <g id="Group_4181" data-name="Group 4181" transform="translate(0 21.538)">
            <g id="Group_4180" data-name="Group 4180">
              <path id="Path_9758" data-name="Path 9758" d="M338.12,337.925H345.4V345.2H338.12Z" transform="translate(-338.12 -337.925)" fill="#fff"/>
            </g>
          </g>
          <g id="Group_4183" data-name="Group 4183" transform="translate(0 10.769)">
            <g id="Group_4182" data-name="Group 4182">
              <path id="Path_9759" data-name="Path 9759" d="M338.12,270.741H345.4v7.279H338.12Z" transform="translate(-338.12 -270.741)" fill="#fff"/>
            </g>
          </g>
        </g>
      </g>
      <g id="Group_4187" data-name="Group 4187" transform="translate(5.965 0)">
        <g id="Group_4186" data-name="Group 4186">
          <path id="Path_9760" data-name="Path 9760" d="M128.468,91.929H134.7v9h-6.236Z" transform="translate(-128.468 -91.929)" fill="#2361b5"/>
        </g>
      </g>
      <g id="Group_4189" data-name="Group 4189" transform="translate(40.613 0)">
        <g id="Group_4188" data-name="Group 4188">
          <path id="Path_9761" data-name="Path 9761" d="M344.625,91.929h6.236v9h-6.236Z" transform="translate(-344.625 -91.929)" fill="#1894ff"/>
        </g>
      </g>
      <g id="Group_4191" data-name="Group 4191" transform="translate(23.289 0)">
        <g id="Group_4190" data-name="Group 4190">
          <path id="Path_9762" data-name="Path 9762" d="M236.547,91.929h6.236v9h-6.236Z" transform="translate(-236.547 -91.929)" fill="#2361b5"/>
        </g>
      </g>
      <g id="Group_4193" data-name="Group 4193" transform="translate(26.426 0)">
        <g id="Group_4192" data-name="Group 4192">
          <path id="Path_9763" data-name="Path 9763" d="M256.121,91.929h3.1v9h-3.1Z" transform="translate(-256.121 -91.929)" fill="#1894ff"/>
        </g>
      </g>
    </g>
    <g id="ui" transform="translate(203.354 773.248)">
      <path id="Path_9764" data-name="Path 9764" d="M133.8,0,128,11.59l5.8,11.59A11.59,11.59,0,0,0,133.8,0Z" transform="translate(-122.205)" fill="#2361b5"/>
      <path id="Path_9765" data-name="Path 9765" d="M0,11.59a11.59,11.59,0,0,0,11.59,11.59V0A11.59,11.59,0,0,0,0,11.59Z" fill="#1894ff"/>
      <path id="Path_9766" data-name="Path 9766" d="M162.437,60,158,68.874l4.437,8.874a8.874,8.874,0,0,0,0-17.748Z" transform="translate(-150.847 -57.284)" fill="#fff"/>
      <path id="Path_9767" data-name="Path 9767" d="M60,68.874a8.874,8.874,0,0,0,8.874,8.874V60A8.874,8.874,0,0,0,60,68.874Z" transform="translate(-57.284 -57.284)" fill="#fff"/>
      <path id="Path_9768" data-name="Path 9768" d="M238.826,236.708l-1.921-1.921H236l.906,1.921.96.96Z" transform="translate(-225.315 -224.157)" fill="#00de9a"/>
      <path id="Path_9769" data-name="Path 9769" d="M150.541,149.581l-.96.96,4.818,4.818v-1.921Z" transform="translate(-142.809 -142.809)" fill="#00de9a"/>
      <path id="Path_9770" data-name="Path 9770" d="M240.766,149.227,236.9,153.09l-.9,1.915h.9l4.821-4.821Z" transform="translate(-225.315 -142.455)" fill="#00de9a"/>
      <path id="Path_9771" data-name="Path 9771" d="M213.574,236.708l.96.96.96-.96v-1.921Z" transform="translate(-203.905 -224.157)" fill="#00de9a"/>
      <path id="Path_9772" data-name="Path 9772" d="M247.132,90h-.679l-.453.679.453.679h.679Z" transform="translate(-234.862 -85.925)" fill="#fff"/>
      <path id="Path_9773" data-name="Path 9773" d="M241,90h.679v1.358H241Z" transform="translate(-230.089 -85.925)" fill="#fff"/>
      <path id="Path_9774" data-name="Path 9774" d="M247.132,392h-.679l-.453.679.453.679h.679Z" transform="translate(-234.862 -374.252)" fill="#fff"/>
      <path id="Path_9775" data-name="Path 9775" d="M241,392h.679v1.358H241Z" transform="translate(-230.089 -374.252)" fill="#fff"/>
      <path id="Path_9776" data-name="Path 9776" d="M0,0H1.358V1.358H0Z" transform="translate(4.075 12.269) rotate(-90)" fill="#fff"/>
      <path id="Path_9777" data-name="Path 9777" d="M0,0H1.358V1.358H0Z" transform="translate(17.748 12.269) rotate(-90)" fill="#fff"/>
    </g>
  </g>
</svg>
