<svg xmlns="http://www.w3.org/2000/svg" width="91" height="146" viewBox="0 0 91 146">
  <g id="Group_5423" data-name="Group 5423" transform="translate(17 -1411.006)">
    <path id="Combined_Shape" data-name="Combined Shape" d="M73,73h0a72.542,72.542,0,0,1-28.415-5.737,72.755,72.755,0,0,1-23.2-15.644,72.755,72.755,0,0,1-15.644-23.2A72.542,72.542,0,0,1,0,0H73V73Z" transform="translate(73 1484.006) rotate(180)" fill="#e6f3ff" opacity="0.07"/>
    <path id="Combined_Shape-2" data-name="Combined Shape" d="M73,73h0a72.542,72.542,0,0,1-28.415-5.737,72.755,72.755,0,0,1-23.2-15.644,72.755,72.755,0,0,1-15.644-23.2A72.542,72.542,0,0,1,0,0H73V73Z" transform="translate(1 1557.006) rotate(-90)" fill="#e6f3ff" opacity="0.07"/>
    <circle id="Oval" cx="18" cy="18" r="18" transform="translate(19 1466.006) rotate(90)" fill="#e6f3ff" opacity="0.07"/>
  </g>
</svg>
