<svg xmlns="http://www.w3.org/2000/svg" width="34" height="206" viewBox="0 0 34 206">
  <g id="Group_5159" data-name="Group 5159" transform="translate(-1193 -1667)">
    <path id="Path_1" data-name="Path 1" d="M-11419,13545.543l-1.1,140.163" transform="translate(12629 -11844.543)" fill="none" stroke="rgba(0,0,0,0.1)" stroke-width="1"/>
    <g id="_24_arrows_arrow-left" data-name="24 / arrows / arrow-left" transform="translate(1200.53 1692.75) rotate(-90)">
      <path id="Path_13887" data-name="Path 13887" d="M17,0A17,17,0,1,1,0,17,17,17,0,0,1,17,0Z" transform="translate(25.75 -7.53) rotate(90)" fill="#e6f3ff"/>
      <path id="icon" d="M2.871,7.28,7.591,12,6.53,13.061,0,6.53,6.53,0,7.591,1.061,2.871,5.78H13.811v1.5Z" transform="translate(1.939 2.47)" fill="#1894ff"/>
    </g>
    <g id="Group_5152" data-name="Group 5152" transform="translate(0 -12)">
      <circle id="Ellipse_2" data-name="Ellipse 2" cx="17" cy="17" r="17" transform="translate(1193 1761)" fill="#e6f3ff"/>
      <g id="_24_arrows_arrow-left-2" data-name="24 / arrows / arrow-left" transform="translate(1200.53 1786.75) rotate(-90)">
        <path id="icon-2" data-name="icon" d="M2.871,7.28,7.591,12,6.53,13.061,0,6.53,6.53,0,7.591,1.061,2.871,5.78H13.811v1.5Z" transform="translate(1.939 2.47)" fill="#1894ff"/>
      </g>
    </g>
    <g id="Group_5153" data-name="Group 5153" transform="translate(0 20)">
      <circle id="Ellipse_3" data-name="Ellipse 3" cx="17" cy="17" r="17" transform="translate(1193 1819)" fill="#00de9a"/>
      <g id="_24_basic_check-mark" data-name="24 / basic / check-mark" transform="translate(1198 1825.5)">
        <path id="icon-3" data-name="icon" d="M5.707,9.293,15,0l1.414,1.414L5.707,12.121,0,6.414,1.414,5Z" transform="translate(4 5)" fill="#fff"/>
      </g>
    </g>
  </g>
</svg>
