<svg xmlns="http://www.w3.org/2000/svg" width="121.466" height="37.295" viewBox="0 0 121.466 37.295">
  <g id="Group_1" data-name="Group 1" transform="translate(-882.132 -520.925)">
    <path id="Path_15600" data-name="Path 15600" d="M35.071,24.111a3.736,3.736,0,0,1-.216,1.131,2.582,2.582,0,0,1-.554.841,2.316,2.316,0,0,1-.837.538,3.193,3.193,0,0,1-1.121.193H31.79V25.683h.554a2.806,2.806,0,0,0,.729-.083,1.114,1.114,0,0,0,.513-.29,1.26,1.26,0,0,0,.3-.51,3.291,3.291,0,0,0,.095-.786V21.257h1.094Zm-1.35-4.784.8-.827.81.827-.81.827Z" transform="translate(850.998 505.61)" fill="#fff"/>
    <path id="Path_15601" data-name="Path 15601" d="M36.217,24.554H35.11V18.06h1.107Z" transform="translate(852.16 505.443)" fill="#fff"/>
    <path id="Path_15602" data-name="Path 15602" d="M38.86,18.129a.675.675,0,1,1,1.35,0,.628.628,0,0,1-.162.441.744.744,0,0,1-.972,0,.625.625,0,0,1-.216-.441Zm1.215,6.59H38.928V19.481h1.148Z" transform="translate(852.798 505.209)" fill="#fff"/>
    <path id="Path_15603" data-name="Path 15603" d="M46.254,21.361a4.493,4.493,0,0,1-.351,1.82,2.647,2.647,0,0,1-1,1.2,2.917,2.917,0,0,1-3,0,2.618,2.618,0,0,1-1.013-1.186A4.211,4.211,0,0,1,40.53,21.4v-.455a4.493,4.493,0,0,1,.351-1.82,2.866,2.866,0,0,1,1.013-1.213,2.917,2.917,0,0,1,3,0,2.742,2.742,0,0,1,1,1.186,4.282,4.282,0,0,1,.365,1.848Zm-1.2-.414a3.182,3.182,0,0,0-.432-1.792,1.408,1.408,0,0,0-1.229-.62,1.341,1.341,0,0,0-1.215.62,3.111,3.111,0,0,0-.459,1.792v.4a3.168,3.168,0,0,0,.446,1.792,1.422,1.422,0,0,0,1.242.634,1.341,1.341,0,0,0,1.215-.62,3.168,3.168,0,0,0,.432-1.806Z" transform="translate(853.327 505.231)" fill="#fff"/>
    <path id="Path_15604" data-name="Path 15604" d="M49.252,22.869a.848.848,0,0,0-.324-.717,3.42,3.42,0,0,0-1.148-.51,5.62,5.62,0,0,1-1.35-.579,1.8,1.8,0,0,1-.945-1.572,1.722,1.722,0,0,1,.675-1.379,2.661,2.661,0,0,1,1.769-.551,2.785,2.785,0,0,1,1.283.276,2.145,2.145,0,0,1,.891.772,2.087,2.087,0,0,1,.311,1.1H49.225a1.143,1.143,0,0,0-.338-.869,1.4,1.4,0,0,0-.972-.3,1.449,1.449,0,0,0-.9.248.876.876,0,0,0-.324.717.748.748,0,0,0,.351.648,3.874,3.874,0,0,0,1.148.51,5.336,5.336,0,0,1,1.35.551,2.114,2.114,0,0,1,.716.717,1.977,1.977,0,0,1,.23.951,1.681,1.681,0,0,1-.662,1.379,2.845,2.845,0,0,1-1.8.51,3.46,3.46,0,0,1-1.35-.276,2.479,2.479,0,0,1-.986-.786,1.974,1.974,0,0,1-.338-1.158h1.2a1.142,1.142,0,0,0,.378.924,1.7,1.7,0,0,0,1.121.331A1.436,1.436,0,0,0,49,23.545a.851.851,0,0,0,.257-.676Z" transform="translate(854.902 505.253)" fill="#fff"/>
    <path id="Path_15605" data-name="Path 15605" d="M56.71,24.209h-.122a3.477,3.477,0,0,1-.662,0A2.663,2.663,0,0,1,55.346,24a1.957,1.957,0,0,1-.486-.345,1.8,1.8,0,0,1-.338-.51,1.094,1.094,0,0,1-.27.29,1.613,1.613,0,0,1-.365.221,1.862,1.862,0,0,1-.392.124h-.405a1.763,1.763,0,0,1-.662-.124,1.549,1.549,0,0,1-.554-.358,1.656,1.656,0,0,1-.378-.565,1.9,1.9,0,0,1-.149-.758,1.936,1.936,0,0,1,.189-.855,2.478,2.478,0,0,1,.473-.648,3.315,3.315,0,0,1,.7-.469,8.2,8.2,0,0,1,.8-.345l-.095-.427,1.067-.262.81,3.2a1.015,1.015,0,0,0,.23.469,1.11,1.11,0,0,0,.351.276.945.945,0,0,0,.378.124h.459Zm-2.7-2.234a.831.831,0,0,0,0-.262,1.734,1.734,0,0,0,0-.262.434.434,0,0,0-.095-.317c-.095-.11,0-.234-.108-.372a3.533,3.533,0,0,0-1.067.524.874.874,0,0,0-.365.717.518.518,0,0,0,.081.29.493.493,0,0,0,.189.221.749.749,0,0,0,.257.124.661.661,0,0,0,.284,0,1.331,1.331,0,0,0,.554-.193A.735.735,0,0,0,54,21.976Z" transform="translate(856.86 505.788)" fill="#fff"/>
    <path id="Path_15606" data-name="Path 15606" d="M61.206,22.78l-.149.1-.324.221a.774.774,0,0,0,.135.207l.189.11h1.121v1.117h-.81a1.965,1.965,0,0,1-.945-.234,1.667,1.667,0,0,1-.648-.689l-.729.331a8.417,8.417,0,0,1-.824.3c-.284.083-.581.152-.878.207a4.908,4.908,0,0,1-.9.083H55.09v-1.02h1.35a4.55,4.55,0,0,0,.931-.1,7.5,7.5,0,0,0,.959-.235,5.844,5.844,0,0,0,.9-.317,6.828,6.828,0,0,0,.756-.345l-.446-.138-.527-.248-.486-.138-.446-.124-.392-.083a.952.952,0,0,0-.257,0h-.176a.322.322,0,0,0-.149.083.606.606,0,0,0-.108.152.668.668,0,0,0-.108.221l-1.013-.317a3.337,3.337,0,0,1,.2-.51,1.777,1.777,0,0,1,.3-.414,1.24,1.24,0,0,1,.932-.372l.351.124.473.138.581.179.621.221.594.221.527.193.392.152h.2ZM56.44,18.823l.783-.813.824.827-.81.813Z" transform="translate(858.07 505.425)" fill="#fff"/>
    <path id="Path_15607" data-name="Path 15607" d="M62.1,22.015a.172.172,0,0,1,.135,0,.169.169,0,0,1,0,.124v.772a.155.155,0,0,1,0,.138.172.172,0,0,1-.135,0H60.268a.147.147,0,0,1-.135-.041.154.154,0,0,1-.04-.138V22.1a.225.225,0,0,1,0-.124.172.172,0,0,1,.135,0Z" transform="translate(859.731 506.921)" fill="#fff"/>
    <path id="Path_15608" data-name="Path 15608" d="M63.467,22.015a.092.092,0,1,1,.135.124v.772a.183.183,0,0,1,0,.138.225.225,0,0,1-.135,0h-1.85a.147.147,0,0,1-.135-.041.154.154,0,0,1-.04-.138V22.1a.225.225,0,0,1,0-.124.172.172,0,0,1,.135,0Z" transform="translate(860.173 506.921)" fill="#fff"/>
    <path id="Path_15609" data-name="Path 15609" d="M62.83,22.561H63.4a1.719,1.719,0,0,0,.419,0,.9.9,0,0,0,.257-.138.582.582,0,0,0,.122-.221,1.732,1.732,0,0,0,0-.276V20.548h1.094v1.3a.713.713,0,0,0,.176.524.785.785,0,0,0,.554.179h.162a.415.415,0,0,0,.189-.1.51.51,0,0,0,.149-.207.814.814,0,0,0,.067-.345V20.52h1.094v1.3a.7.7,0,0,0,.175.538.76.76,0,0,0,.608.207.542.542,0,0,0,.216,0,.39.39,0,0,0,.189-.11A.774.774,0,0,0,69,22.243a.915.915,0,0,0,0-.3h0V20.561h1.094V21.94a.655.655,0,0,0,.2.51,1.036,1.036,0,0,0,.608.152h.432v1.117H70.9a2.647,2.647,0,0,1-.783-.1,1.437,1.437,0,0,1-.581-.331,1.465,1.465,0,0,1-.527.317,1.6,1.6,0,0,1-.621.11,2.251,2.251,0,0,1-.716-.1,1.425,1.425,0,0,1-.554-.331,1.991,1.991,0,0,1-.513.317,1.736,1.736,0,0,1-.581.11,1.933,1.933,0,0,1-.729-.11,1.8,1.8,0,0,1-.554-.3,2.115,2.115,0,0,1-1.35.414H62.83Z" transform="translate(860.584 506.375)" fill="#fff"/>
    <path id="Path_15610" data-name="Path 15610" d="M71.525,20.723v.427a2.622,2.622,0,0,1,0,.372l.081.427v.758a2.107,2.107,0,0,1-.148.8,1.9,1.9,0,0,1-.392.565,1.705,1.705,0,0,1-.554.317,1.537,1.537,0,0,1-.608.11H69v-1.02h1.35a.627.627,0,0,0,.2-.083.878.878,0,0,0,.176-.207.957.957,0,0,0,0-.372,1.7,1.7,0,0,0,0-.248V21.62a.4.4,0,0,0-.068-.276,1.492,1.492,0,0,0,0-.193ZM69.648,18.9l.8-.813.81.827-.81.813Z" transform="translate(862.642 505.455)" fill="#fff"/>
    <path id="Path_15611" data-name="Path 15611" d="M82.027,21.036v1.379a.83.83,0,0,0,0,.276.524.524,0,0,0,.122.179.337.337,0,0,0,.162.11.414.414,0,0,0,.162.069H83v1.117H82.4l-.351-.069-.324-.124a1.081,1.081,0,0,1-.284-.207,1.943,1.943,0,0,1-1.35.414h-5a1.908,1.908,0,0,1-.621-.11,1.347,1.347,0,0,1-.513-.331,1.371,1.371,0,0,1-.176-.207,1.6,1.6,0,0,1-.3-.662,1.717,1.717,0,0,1,0-.469,2.239,2.239,0,0,1,0-.5.933.933,0,0,1,.095-.5c.095-.165,0-.29.108-.4s0-.193,0-.221l.527.179.527.165a.389.389,0,0,1-.095.29l-.081.345v.358a2.685,2.685,0,0,0,0,.276.886.886,0,0,0,0,.358.426.426,0,0,0,.149.193.322.322,0,0,0,.176.1h5.238a1.322,1.322,0,0,0,.419,0,.469.469,0,0,0,.257-.138.462.462,0,0,0,.095-.331V21.036Zm-5.252-.372-.743-.758.729-.786.756.786Zm1.85,0-.743-.772.729-.772.77.772Z" transform="translate(864.046 505.845)" fill="#fff"/>
    <path id="Path_15612" data-name="Path 15612" d="M82.384,22.015a.172.172,0,0,1,.135,0,.169.169,0,0,1,0,.124v.772a.155.155,0,0,1,0,.138.172.172,0,0,1-.135,0H80.548a.147.147,0,0,1-.135-.041.154.154,0,0,1-.04-.138V22.1a.225.225,0,0,1,0-.124.172.172,0,0,1,.135,0Z" transform="translate(866.359 506.921)" fill="#fff"/>
    <path id="Path_15613" data-name="Path 15613" d="M83.747,22.015a.092.092,0,1,1,.135.124v.772a.183.183,0,0,1,0,.138.225.225,0,0,1-.135,0H81.9a.147.147,0,0,1-.135-.041.154.154,0,0,1-.04-.138V22.1a.225.225,0,0,1,0-.124.172.172,0,0,1,.135,0Z" transform="translate(866.8 506.921)" fill="#fff"/>
    <path id="Path_15614" data-name="Path 15614" d="M83.12,24.857V23.8h1.809a3.966,3.966,0,0,0,.621,0,2.124,2.124,0,0,0,.405-.11.835.835,0,0,0,.23-.152.647.647,0,0,0,.122-.165,4.522,4.522,0,0,1-1.053,0,1.957,1.957,0,0,1-.8-.276,1.368,1.368,0,0,1-.5-.551,1.684,1.684,0,0,1-.176-.813,1.783,1.783,0,0,1,.135-.717,1.855,1.855,0,0,1,.392-.662,1.7,1.7,0,0,1,.581-.4,1.63,1.63,0,0,1,.729-.124,2.173,2.173,0,0,1,.635.124,1.858,1.858,0,0,1,.473.3,1.692,1.692,0,0,1,.324.427,2.51,2.51,0,0,1,.216.524,4.619,4.619,0,0,1,.121.593,4.786,4.786,0,0,1,0,.62v.345a2.806,2.806,0,0,1-.243,1.034,1.837,1.837,0,0,1-.554.648,2.416,2.416,0,0,1-.77.331,4.8,4.8,0,0,1-.9.083Zm1.553-6.77.783-.827.824.841-.81.813Zm.986,2.854a1.137,1.137,0,0,0-.311,0,.629.629,0,0,0-.27.138.577.577,0,0,0-.176.221.561.561,0,0,0-.068.3.578.578,0,0,0,.405.565,2.064,2.064,0,0,0,1.161,0v-.414a2.06,2.06,0,0,0-.108-.414.828.828,0,0,0-.216-.317.782.782,0,0,0-.419-.083Z" transform="translate(867.24 505.141)" fill="#fff"/>
    <path id="Path_15615" data-name="Path 15615" d="M89.21,24.554a5.011,5.011,0,0,1-.837,0,2.074,2.074,0,0,1-.581-.179,1.057,1.057,0,0,1-.378-.3,1.514,1.514,0,0,1-.23-.441,3.106,3.106,0,0,1-.094-.551c0-.221,0-.441,0-.7V18.06H88.2v4.26a3.421,3.421,0,0,0,0,.579.615.615,0,0,0,.121.345.6.6,0,0,0,.311.152,3.252,3.252,0,0,0,.581,0Z" transform="translate(868.558 505.443)" fill="#fff"/>
    <path id="Path_15616" data-name="Path 15616" d="M91.868,20a.408.408,0,0,1,0,.138q0,.124,0,.29v1.558a2.107,2.107,0,0,1-.148.8,1.9,1.9,0,0,1-.392.565,1.706,1.706,0,0,1-.554.317,1.577,1.577,0,0,1-.608.11H88.52v-1.02h2.093a.627.627,0,0,0,.2-.083,1.371,1.371,0,0,0,.176-.207.955.955,0,0,0,.067-.372,1.7,1.7,0,0,0,0-.248v-.3a2.816,2.816,0,0,0,0-.331v-.786Zm-2.376,6.232-.81-.717.729-.772.756.772Zm1.85,0-.824-.717.729-.772.756.772Z" transform="translate(869.012 506.179)" fill="#fff"/>
    <path id="Path_15617" data-name="Path 15617" d="M94.7,23.354a3.735,3.735,0,0,1-.23,1.131,2.556,2.556,0,0,1-.54.841,2.369,2.369,0,0,1-.851.538,3.14,3.14,0,0,1-1.121.193h-.54V24.926h.54a2.99,2.99,0,0,0,.743-.083,1.008,1.008,0,0,0,.5-.29,1.261,1.261,0,0,0,.3-.51,2.717,2.717,0,0,0,.054-.786V20.5H94.66Z" transform="translate(869.961 506.368)" fill="#fff"/>
    <path id="Path_15618" data-name="Path 15618" d="M96.164,24.083H95.5L95.151,24l-.365-.11-.527-.165.311-1.075a7.6,7.6,0,0,0,.8.234,4.45,4.45,0,0,0,.783.138,1.891,1.891,0,0,0,.635,0,.446.446,0,0,0,.351-.262.2.2,0,0,0,0-.152.71.71,0,0,0-.094-.207l-1.647-2.44.918-.62.311.469h0v.1l.135.207.23.345.351.538.621.634a1.9,1.9,0,0,1,.284.717,1.4,1.4,0,0,1-.3,1.034,1.157,1.157,0,0,1-.3.276,1.988,1.988,0,0,1-.756.3A4.146,4.146,0,0,1,96.164,24.083Z" transform="translate(870.881 505.929)" fill="#fff"/>
    <path id="Path_15619" data-name="Path 15619" d="M54.68,39.805,52.9,36.165a1.9,1.9,0,0,0-1.7-1.075H32.5a.766.766,0,0,0-.65.371.8.8,0,0,0-.038.76l1.2,2.385a3.744,3.744,0,0,0,3.348,2.068H54.14a.591.591,0,0,0,.506-.281.618.618,0,0,0,.034-.587Z" transform="translate(850.399 511.894)" fill="#fff"/>
    <path id="Path_15620" data-name="Path 15620" d="M42.274,40.52H39.48a.5.5,0,0,0-.5.5v2.757a.5.5,0,0,0,.5.5h2.795a.5.5,0,0,0,.5-.5V41.016a.5.5,0,0,0-.5-.5Z" transform="translate(852.829 513.95)" fill="#fff"/>
    <path id="Path_15621" data-name="Path 15621" d="M110.973,36.965H90.613a.335.335,0,0,1-.285-.146.351.351,0,0,1-.039-.323,8.656,8.656,0,0,0,.473-2.854V30.788a.641.641,0,0,0-.635-.648h-4.32a.641.641,0,0,0-.635.648v2.9a3.274,3.274,0,0,1-3.24,3.281H80.056a.335.335,0,0,1-.277-.142.351.351,0,0,1-.047-.313,8.656,8.656,0,0,0,.459-2.757v-2.9A.655.655,0,0,0,80,30.394a.627.627,0,0,0-.457-.185H75.182a.655.655,0,0,0-.648.648v2.854a3.33,3.33,0,0,1-.964,2.336,3.192,3.192,0,0,1-2.3.946H58.738a1.9,1.9,0,0,0-1.7,1.075l-1.782,3.64a.618.618,0,0,0,.034.587.591.591,0,0,0,.506.281h15.5a8.889,8.889,0,0,0,6.885-3.254l1.242,2.537a1.2,1.2,0,0,0,1.08.676h1.35a8.861,8.861,0,0,0,7.155-3.612l1.269,2.923a1.2,1.2,0,0,0,1.094.731h15.742a3.784,3.784,0,0,0,3.362-2.082l1.161-2.4a.786.786,0,0,0-.021-.755.753.753,0,0,0-.641-.376Z" transform="translate(857.68 510.019)" fill="#fff"/>
    <path id="Path_15622" data-name="Path 15622" d="M81.463,40.52H73.93a.5.5,0,0,0-.5.5v2.757a.5.5,0,0,0,.5.5h7.533a.5.5,0,0,0,.5-.5V41.016a.5.5,0,0,0-.5-.5Z" transform="translate(864.039 513.95)" fill="#fff"/>
    <path id="Path_15623" data-name="Path 15623" d="M50.753,40.52H43.22a.5.5,0,0,0-.5.5v2.757a.5.5,0,0,0,.5.5h7.533a.5.5,0,0,0,.5-.5V41.016A.5.5,0,0,0,50.753,40.52Z" transform="translate(854.029 513.95)" fill="#fff"/>
    <path id="Path_15624" data-name="Path 15624" d="M66.421,40.52H63.64a.481.481,0,0,0-.352.14.5.5,0,0,0-.147.356v2.757a.5.5,0,0,0,.147.356.481.481,0,0,0,.352.14h2.781a.481.481,0,0,0,.352-.14.5.5,0,0,0,.147-.356V41.016a.5.5,0,0,0-.147-.356.481.481,0,0,0-.352-.14Z" transform="translate(860.719 513.95)" fill="#fff"/>
    <path id="Path_15625" data-name="Path 15625" d="M55.037,26.25H50.406a.491.491,0,0,0-.486.483V43.484a.546.546,0,0,0,.54.538h4.523a.532.532,0,0,0,.527-.538V26.733A.478.478,0,0,0,55.037,26.25Z" transform="translate(856.392 508.546)" fill="#fff"/>
    <path id="Path_15626" data-name="Path 15626" d="M120.074,29.615a9.8,9.8,0,0,1,2.093,11.568c5.036-8.59,3.132-15.345,3.132-15.345-10.936-5.6-17.078-.827-17.078-.827a17.478,17.478,0,0,1,11.854,4.6Z" transform="translate(875.252 507.358)" fill="#fff"/>
    <path id="Path_15627" data-name="Path 15627" d="M109.464,30.745a9.18,9.18,0,0,1,11.273-2.151c-8.37-5.17-14.945-3.226-14.945-3.226-5.4,11.237-.81,17.538-.81,17.538a18.466,18.466,0,0,1,4.482-12.16Z" transform="translate(873.607 508.076)" fill="#fff"/>
    <path id="Path_15628" data-name="Path 15628" d="M110.715,41.424a9.8,9.8,0,0,1-2.106-11.554c-5.009,8.576-3.119,15.345-3.119,15.345,10.936,5.6,17.065.827,17.065.827a17.452,17.452,0,0,1-11.84-4.619Z" transform="translate(874.252 509.917)" fill="#fff"/>
    <path id="Path_15629" data-name="Path 15629" d="M125.885,28.07a18.438,18.438,0,0,1-4.5,12.16,9.167,9.167,0,0,1-11.26,2.151c8.357,5.17,14.945,3.212,14.945,3.212C130.53,34.371,125.885,28.07,125.885,28.07Z" transform="translate(875.869 509.235)" fill="#fff"/>
    <path id="Path_15630" data-name="Path 15630" d="M121.08,16.19c-7.817.152-8.33,7.128-8.33,7.128C120.607,23.994,121.08,16.19,121.08,16.19Z" transform="translate(876.859 504.735)" fill="#fff"/>
  </g>
</svg>
