<svg xmlns="http://www.w3.org/2000/svg" xmlns:xlink="http://www.w3.org/1999/xlink" width="24" height="24" viewBox="0 0 24 24">
  <defs>
    <clipPath id="clip-path">
      <path id="_Icon_Color" data-name="🔹 Icon Color" d="M12,24c-3.224,0-3.652-.014-4.947-.072-4.366-.2-6.78-2.615-6.98-6.98C.014,15.653,0,15.225,0,12S.014,8.343.073,7.052c.2-4.366,2.614-6.78,6.98-6.98C8.347.014,8.776,0,12,0s3.658.014,4.949.073c4.369.2,6.783,2.614,6.979,6.98C23.986,8.347,24,8.776,24,12s-.014,3.658-.073,4.948c-.2,4.365-2.611,6.779-6.979,6.98C15.653,23.986,15.225,24,12,24ZM12,2.163c-3.19,0-3.572.012-4.848.069C3.9,2.379,2.383,3.9,2.232,7.151c-.058,1.293-.07,1.677-.07,4.848,0,3.2.012,3.577.07,4.849C2.381,20.1,3.9,21.62,7.151,21.769c1.272.058,1.652.07,4.848.07s3.577-.012,4.85-.07c3.251-.148,4.769-1.666,4.919-4.919.056-1.259.068-1.637.068-4.849,0-3.234-.012-3.609-.068-4.848C21.619,3.9,20.1,2.381,16.85,2.233,15.577,2.175,15.2,2.163,12,2.163Zm0,16A6.162,6.162,0,1,1,18.162,12,6.169,6.169,0,0,1,12,18.163ZM12,8a4,4,0,1,0,4,4A4,4,0,0,0,12,8Zm6.406-.965A1.44,1.44,0,1,1,19.845,5.6,1.442,1.442,0,0,1,18.406,7.035Z" transform="translate(0 0.5)" fill="#2361b5"/>
    </clipPath>
  </defs>
  <g id="Icons_Facebook_Copy" data-name="Icons / Facebook Copy" transform="translate(0 -0.5)">
    <path id="_Icon_Color-2" data-name="🔹 Icon Color" d="M12,24c-3.224,0-3.652-.014-4.947-.072-4.366-.2-6.78-2.615-6.98-6.98C.014,15.653,0,15.225,0,12S.014,8.343.073,7.052c.2-4.366,2.614-6.78,6.98-6.98C8.347.014,8.776,0,12,0s3.658.014,4.949.073c4.369.2,6.783,2.614,6.979,6.98C23.986,8.347,24,8.776,24,12s-.014,3.658-.073,4.948c-.2,4.365-2.611,6.779-6.979,6.98C15.653,23.986,15.225,24,12,24ZM12,2.163c-3.19,0-3.572.012-4.848.069C3.9,2.379,2.383,3.9,2.232,7.151c-.058,1.293-.07,1.677-.07,4.848,0,3.2.012,3.577.07,4.849C2.381,20.1,3.9,21.62,7.151,21.769c1.272.058,1.652.07,4.848.07s3.577-.012,4.85-.07c3.251-.148,4.769-1.666,4.919-4.919.056-1.259.068-1.637.068-4.849,0-3.234-.012-3.609-.068-4.848C21.619,3.9,20.1,2.381,16.85,2.233,15.577,2.175,15.2,2.163,12,2.163Zm0,16A6.162,6.162,0,1,1,18.162,12,6.169,6.169,0,0,1,12,18.163ZM12,8a4,4,0,1,0,4,4A4,4,0,0,0,12,8Zm6.406-.965A1.44,1.44,0,1,1,19.845,5.6,1.442,1.442,0,0,1,18.406,7.035Z" transform="translate(0 0.5)" fill="#2361b5"/>
  </g>
</svg>
