<svg xmlns="http://www.w3.org/2000/svg" xmlns:xlink="http://www.w3.org/1999/xlink" width="556" height="364.906" viewBox="0 0 556 364.906">
  <defs>
    <clipPath id="clip-path">
      <path id="Path_15751" data-name="Path 15751" d="M362.3,298.3c-36.159-41.558-107.566,12.206-211.032-11.324C61.653,266.582,56.5,212.424-15.1,215.11c-52.309,1.952-109.31,32.179-140.636,84.839-34.548,58.062-21.989,117.174-18.464,131.518,15.738,64.338,62.448,98.277,78.926,109.869C-27.383,589.065,48.8,580.7,85.35,576.707c137.291-15.047,284.273-113.14,290.818-219.786C377.037,342.959,378.62,317.062,362.3,298.3Z" transform="translate(1128.557 -64.014)" fill="#e6f3ff" opacity="0.13"/>
    </clipPath>
  </defs>
  <g id="Mask_Group_34" data-name="Mask Group 34" transform="translate(-949.221 -151)" opacity="0.08" clip-path="url(#clip-path)">
    <path id="Path_15750" data-name="Path 15750" d="M1364.957,0H0V120H1364.957Z" transform="translate(1088.76 164)" fill="#e6f3ff"/>
  </g>
</svg>
